<svg width="51" height="51" viewBox="0 0 51 51" fill="none" xmlns="http://www.w3.org/2000/svg">
<g clip-path="url(#clip0_150_11625)">
<path d="M13.1328 14.9805H6.88281C6.05401 14.9805 5.25915 15.3097 4.6731 15.8958C4.08705 16.4818 3.75781 17.2767 3.75781 18.1055V36.8555H6.88281V29.043H13.1328V36.8555H16.2578V18.1055C16.2578 17.2767 15.9286 16.4818 15.3425 15.8958C14.7565 15.3097 13.9616 14.9805 13.1328 14.9805ZM6.88281 25.918V18.1055H13.1328V25.918H6.88281Z" fill="url(#paint0_linear_150_11625)"/>
<path d="M35.0078 18.1055H39.6953V33.7305H35.0078V36.8555H47.5078V33.7305H42.8203V18.1055H47.5078V14.9805H35.0078V18.1055Z" fill="url(#paint1_linear_150_11625)"/>
<path d="M22.5078 36.8555H19.3828V14.9805H28.7578C29.5866 14.9805 30.3815 15.3097 30.9675 15.8958C31.5536 16.4818 31.8828 17.2767 31.8828 18.1055V25.918C31.8828 26.7468 31.5536 27.5416 30.9675 28.1277C30.3815 28.7137 29.5866 29.043 28.7578 29.043H22.5078V36.8555ZM22.5078 25.918H28.7578V18.1055H22.5078V25.918Z" fill="url(#paint2_linear_150_11625)"/>
</g>
<defs>
<linearGradient id="paint0_linear_150_11625" x1="10.0078" y1="14.9805" x2="10.0078" y2="36.8555" gradientUnits="userSpaceOnUse">
<stop stop-color="white"/>
<stop offset="1" stop-color="white" stop-opacity="0.7"/>
</linearGradient>
<linearGradient id="paint1_linear_150_11625" x1="41.2578" y1="14.9805" x2="41.2578" y2="36.8555" gradientUnits="userSpaceOnUse">
<stop stop-color="white"/>
<stop offset="1" stop-color="white" stop-opacity="0.7"/>
</linearGradient>
<linearGradient id="paint2_linear_150_11625" x1="25.6328" y1="14.9805" x2="25.6328" y2="36.8555" gradientUnits="userSpaceOnUse">
<stop stop-color="white"/>
<stop offset="1" stop-color="white" stop-opacity="0.7"/>
</linearGradient>
<clipPath id="clip0_150_11625">
<rect width="50" height="50" fill="white" transform="translate(0.632812 0.917969)"/>
</clipPath>
</defs>
</svg>
