<svg width="57" height="56" viewBox="0 0 57 56" fill="none" xmlns="http://www.w3.org/2000/svg">
<path d="M1.01313 26.9359C1.32813 25.3565 1.53813 23.7465 1.97563 22.1977C4.60063 12.8221 15.3631 8.92397 22.7569 14.734C27.0881 18.1421 28.1644 22.9459 27.95 28.3621H3.5375C3.17 38.079 10.1656 43.9459 19.0819 40.9534C22.21 39.9034 24.0519 37.4534 24.975 34.3909C25.4431 32.8552 26.2175 32.6146 27.6613 33.0521C26.9219 36.8846 25.2463 40.0871 21.7463 42.0909C16.4963 45.0921 9.00187 44.1209 5.06 39.9515C2.7325 37.5015 1.74375 34.4521 1.30625 31.1577C1.24063 30.6327 1.105 30.1165 1 29.5959C1.00875 28.7092 1.01313 27.8225 1.01313 26.9359ZM3.58125 26.284H25.6444C25.5 19.2577 21.125 14.2658 15.1444 14.2221C8.58188 14.1696 3.86562 19.0434 3.58125 26.284Z" fill="url(#paint0_linear_150_11620)"/>
<path d="M55.6325 42.9386C53.6375 43.4461 52.4037 42.9605 51.2968 41.298C48.8118 37.5749 46.0687 34.0224 43.4218 30.4042C43.0806 29.9361 42.7262 29.4767 42.2843 28.8948C39.1518 33.1211 36.0237 37.1461 33.0881 41.333C32.0381 42.8292 30.9356 43.4811 28.9756 42.9517L40.7531 27.1449L29.7893 12.8692C31.675 12.5017 32.9787 12.6899 34.1337 14.3786C36.6843 18.1061 39.4975 21.6542 42.3018 25.408C45.1237 21.6674 47.9018 18.1149 50.5268 14.4224C51.5812 12.9261 52.7143 12.3574 54.6087 12.9086C53.1737 14.8117 51.7693 16.6842 50.3562 18.5436C48.4487 21.0505 46.5762 23.588 44.5987 26.0424C43.8943 26.9174 44.0081 27.4861 44.6381 28.313C48.2956 33.1211 51.9093 37.9774 55.6325 42.9386Z" fill="url(#paint1_linear_150_11620)"/>
<defs>
<linearGradient id="paint0_linear_150_11620" x1="14.4878" y1="12" x2="14.4878" y2="43.8357" gradientUnits="userSpaceOnUse">
<stop stop-color="white"/>
<stop offset="1" stop-color="white" stop-opacity="0.7"/>
</linearGradient>
<linearGradient id="paint1_linear_150_11620" x1="42.304" y1="12.7021" x2="42.304" y2="43.1336" gradientUnits="userSpaceOnUse">
<stop stop-color="white"/>
<stop offset="1" stop-color="white" stop-opacity="0.7"/>
</linearGradient>
</defs>
</svg>
