<svg width="45" height="45" viewBox="0 0 45 45" fill="none" xmlns="http://www.w3.org/2000/svg">
<path d="M22.5 22.5C22.5 20.025 24.525 18 27 18H22.5V22.5Z" fill="url(#paint0_linear_150_11677)"/>
<path d="M22.5 0C10.08 0 0 10.08 0 22.5C0 34.92 10.08 45 22.5 45C34.92 45 45 34.92 45 22.5C45 10.08 34.92 0 22.5 0ZM31.5 22.5C31.5 24.975 29.475 27 27 27C24.525 27 22.5 24.975 22.5 22.5V27V31.5C22.5 33.975 20.475 36 18 36C15.525 36 13.5 33.975 13.5 31.5C13.5 29.025 15.525 27 18 27C15.525 27 13.5 24.975 13.5 22.5C13.5 20.025 15.525 18 18 18C15.525 18 13.5 15.975 13.5 13.5C13.5 11.025 15.525 9 18 9H22.5H27C29.475 9 31.5 11.025 31.5 13.5C31.5 15.975 29.475 18 27 18C29.475 18 31.5 20.025 31.5 22.5Z" fill="url(#paint1_linear_150_11677)"/>
<defs>
<linearGradient id="paint0_linear_150_11677" x1="24.75" y1="18" x2="24.75" y2="22.5" gradientUnits="userSpaceOnUse">
<stop stop-color="white"/>
<stop offset="1" stop-color="white" stop-opacity="0.7"/>
</linearGradient>
<linearGradient id="paint1_linear_150_11677" x1="22.5" y1="0" x2="22.5" y2="45" gradientUnits="userSpaceOnUse">
<stop stop-color="white"/>
<stop offset="1" stop-color="white" stop-opacity="0.7"/>
</linearGradient>
</defs>
</svg>
