<svg xmlns="http://www.w3.org/2000/svg" width="45" height="51" viewBox="0 0 45 51" fill="none">
  <path d="M26.8592 6.64904L37.0216 12.5895C38.704 10.7989 41.5034 10.7255 43.2738 12.427C43.572 12.7207 43.8377 13.0535 44.0463 13.4191C45.2606 15.5597 44.5299 18.294 42.4041 19.5221C42.0503 19.7252 41.6641 19.8877 41.2531 19.9861V31.8592C43.6184 32.4295 45.0752 34.8216 44.5113 37.2137C44.414 37.6371 44.2456 38.0434 44.037 38.4184C42.8135 40.5511 40.1191 41.2823 38.0026 40.0464C37.601 39.8183 37.2302 39.509 36.9243 39.159L26.8175 45.0588C27.5822 47.3946 26.3262 49.9164 24.0166 50.6899C23.5655 50.8445 23.0989 50.918 22.6324 50.918C20.2022 50.918 18.2232 48.9321 18.2232 46.4665C18.2232 46.0431 18.2881 45.6119 18.4086 45.1963L8.23848 39.2636C6.55608 41.0464 3.76444 41.1198 2.00324 39.4105C0.249775 37.709 0.18489 34.8935 1.85802 33.1123C2.44509 32.4935 3.19437 32.0545 4.01471 31.8514V19.9783C1.64946 19.408 0.184889 17.0003 0.756504 14.5988C0.853833 14.1832 1.0145 13.7848 1.22307 13.4191C2.43736 11.2864 5.14095 10.5552 7.24974 11.7911C7.61125 12.002 7.94958 12.2629 8.24003 12.5723L18.4101 6.63967C17.718 4.28036 19.0544 1.79763 21.3794 1.10546C21.7811 0.975779 22.2075 0.917969 22.6355 0.917969C25.0656 0.917969 27.0446 2.90384 27.0446 5.36158C27.0446 5.80063 26.9797 6.23186 26.8592 6.64748V6.64904ZM25.7979 8.48023C25.7577 8.52086 25.7253 8.56148 25.6774 8.6021L38.9867 31.9092C39.0423 31.8936 39.1072 31.8764 39.1551 31.8608V19.9721C36.7976 19.3861 35.3655 16.969 35.9525 14.5847C35.9603 14.5363 35.9773 14.4785 35.985 14.43L25.7979 8.48023ZM19.5858 8.6021L19.4653 8.48023L9.2782 14.4207C9.95487 16.78 8.60153 19.2471 6.26873 19.9299C6.21311 19.9455 6.16367 19.9549 6.10806 19.9705V31.8592L6.28572 31.9076L19.5951 8.60054L19.5858 8.6021ZM23.8667 9.65988C23.0618 9.888 22.2091 9.888 21.4119 9.65988L8.10253 32.967C8.70659 33.5529 9.13298 34.3091 9.34154 35.1403H35.9355C36.1364 34.3107 36.5628 33.5529 37.1746 32.9592L23.8667 9.65988ZM25.8937 43.4635L36.0159 37.5481C35.9834 37.4496 35.9603 37.3528 35.9355 37.2543H9.33382L9.28593 37.4246L19.4653 43.3651C20.2625 42.5276 21.3887 42.0057 22.6355 42.0057C23.9316 42.0057 25.0903 42.5682 25.8937 43.4635Z" fill="url(#paint0_linear_150_11631)"/>
  <defs>
    <linearGradient id="paint0_linear_150_11631" x1="22.6328" y1="0.917969" x2="22.6328" y2="50.918" gradientUnits="userSpaceOnUse">
      <stop stop-color="white"/>
      <stop offset="1" stop-color="white" stop-opacity="0.7"/>
    </linearGradient>
  </defs>
</svg>