<svg xmlns="http://www.w3.org/2000/svg" width="47" height="47" viewBox="0 0 47 47" fill="none">
  <path d="M41.9643 0H5.03571C2.25558 0 0 2.25558 0 5.03571V41.9643C0 44.7444 2.25558 47 5.03571 47H41.9643C44.7444 47 47 44.7444 47 41.9643V5.03571C47 2.25558 44.7444 0 41.9643 0ZM25.5772 36.6558C25.5772 41.2299 22.8915 43.3176 18.9783 43.3176C15.4429 43.3176 13.3971 41.4922 12.348 39.2786L15.9464 37.1069C16.6388 38.3344 17.2683 39.373 18.7895 39.373C20.2373 39.373 21.1605 38.8065 21.1605 36.5929V21.5801H25.5772V36.6558ZM36.0263 43.3176C31.9243 43.3176 29.2701 41.3663 27.9797 38.8065L31.5781 36.7292C32.5223 38.2714 33.7603 39.415 35.9319 39.415C37.7574 39.415 38.9324 38.5022 38.9324 37.2328C38.9324 35.7221 37.7364 35.1871 35.7116 34.2953L34.61 33.8232C31.4208 32.4699 29.3121 30.7598 29.3121 27.1614C29.3121 23.8462 31.8404 21.3283 35.7746 21.3283C38.5862 21.3283 40.6004 22.304 42.0482 24.8638L38.6071 27.067C37.8518 25.7136 37.0335 25.1786 35.7641 25.1786C34.4737 25.1786 33.6554 25.9969 33.6554 27.067C33.6554 28.3888 34.4737 28.9239 36.3725 29.7527L37.4741 30.2248C41.2299 31.8299 43.3386 33.477 43.3386 37.1699C43.3386 41.1355 40.2123 43.3176 36.0263 43.3176Z" fill="url(#paint0_linear_148_11617)"/>
  <defs>
    <linearGradient id="paint0_linear_148_11617" x1="23.5" y1="0" x2="23.5" y2="47" gradientUnits="userSpaceOnUse">
      <stop stop-color="white"/>
      <stop offset="1" stop-color="white" stop-opacity="0.7"/>
    </linearGradient>
  </defs>
</svg>