<svg width="30" height="30" viewBox="0 0 44 44" fill="none" xmlns="http://www.w3.org/2000/svg">
<rect width="44" height="44" fill="#1E1E1E"/>
<g id="Mockup Portfolio (Desktop)">
<rect width="1728" height="7177" transform="translate(-50 -30)" fill="#111111"/>
<g id="Navbar">
<g id="LinkedIn">
<path id="Icon" d="M40.8571 0.125H3.13304C1.40446 0.125 0 1.54102 0 3.2793V40.7207C0 42.459 1.40446 43.875 3.13304 43.875H40.8571C42.5857 43.875 44 42.459 44 40.7207V3.2793C44 1.54102 42.5857 0.125 40.8571 0.125ZM13.2982 37.625H6.77679V16.7461H13.308V37.625H13.2982ZM10.0375 13.8945C7.94554 13.8945 6.25625 12.2051 6.25625 10.1348C6.25625 8.06445 7.94554 6.375 10.0375 6.375C12.1196 6.375 13.8187 8.06445 13.8187 10.1348C13.8187 12.2148 12.1295 13.8945 10.0375 13.8945ZM37.7437 37.625H31.2223V27.4688C31.2223 25.0469 31.1732 21.9316 27.8339 21.9316C24.4357 21.9316 23.9152 24.5684 23.9152 27.293V37.625H17.3938V16.7461H23.65V19.5977H23.7384C24.6125 17.957 26.7437 16.2285 29.9161 16.2285C36.5161 16.2285 37.7437 20.5547 37.7437 26.1797V37.625Z" fill="url(#paint0_linear_0_1)"/>
</g>
</g>
</g>
<defs>
<linearGradient id="paint0_linear_0_1" x1="22" y1="0.125" x2="22" y2="43.875" gradientUnits="userSpaceOnUse">
<stop stop-color="white"/>
<stop offset="1" stop-color="white" stop-opacity="0.7"/>
</linearGradient>
</defs>
</svg>
