<svg width="19" height="43" viewBox="0 0 19 43" fill="none" xmlns="http://www.w3.org/2000/svg">
<path d="M9.23739 31.8021C9.23739 31.8021 9.2374 16.9473 9.7225 16.9491C10.0983 16.9491 10.587 36.111 10.587 36.111C9.91481 36.0303 9.23744 32.9576 9.23744 31.802L9.23739 31.8021ZM18.6509 17.1193C17.3536 11.3609 14.511 6.41069 10.593 2.58921L10.5834 2.57994C10.106 1.84021 9.6704 0.990719 9.32038 0.0972259L9.28676 0C9.28795 0.029123 9.28853 0.0633537 9.28853 0.0977636C9.28853 0.907293 8.93118 1.63205 8.36781 2.11818L8.3641 2.12132C3.31908 6.47149 0.108527 12.8813 0.0022053 20.0553L0.0019845 20.0738C0.000749231 20.1624 0 20.267 0 20.3718C0 27.4791 3.36699 33.7876 8.56951 37.7421L8.62527 37.7826L8.7488 37.8722C8.97585 39.5775 9.1699 41.2867 9.33092 43H10.1795C10.4142 40.8622 10.7306 38.9906 11.1443 37.1566L11.0792 37.4996C11.6378 37.1047 12.1273 36.6969 12.5832 36.2536L12.5787 36.258C16.5331 32.5346 19 27.2304 19 21.3411C19 21.254 18.9995 21.1669 18.9984 21.0801L18.9985 21.0933C18.9944 19.6862 18.8681 18.312 18.6299 16.9773L18.651 17.1194L18.6509 17.1193Z" fill="url(#paint0_linear_150_11654)"/>
<defs>
<linearGradient id="paint0_linear_150_11654" x1="9.5" y1="0" x2="9.5" y2="43" gradientUnits="userSpaceOnUse">
<stop stop-color="white"/>
<stop offset="1" stop-color="white" stop-opacity="0.7"/>
</linearGradient>
</defs>
</svg>
