<svg width="82" height="43" viewBox="0 0 82 43" fill="none" xmlns="http://www.w3.org/2000/svg">
<path d="M40.441 26.505H48.0261V28.3332H40.3112C40.233 28.3332 40.1294 28.3506 40.0512 28.3506C39.0903 28.4387 38.8045 28.5973 38.6749 29.1598C38.6486 29.2477 38.6486 29.3183 38.6486 29.3887V30.6368C38.6486 30.7249 38.6486 30.7955 38.6749 30.8835C38.8047 31.6221 39.3241 31.9555 40.4148 31.9555H43.6878C44.4932 31.9555 45.3239 32.0964 46 32.3605C47.2725 32.8526 47.9224 33.5911 47.9224 34.3825V36.3868C47.9224 37.3543 47.3507 38.0931 46.182 38.6376C45.4799 38.9718 44.5972 39.1647 43.6876 39.1647H35.921V37.3365H43.3766C43.4806 37.3365 43.5581 37.3191 43.6623 37.3191C44.1814 37.2838 44.5712 37.143 44.8047 36.9315C45.0649 36.7214 45.1944 36.4748 45.1944 36.281V34.6813C45.1944 34.5058 45.1425 34.3473 44.987 34.1887C44.7273 33.8725 44.3629 33.7144 43.506 33.644C43.428 33.6264 43.3245 33.6264 43.2205 33.6264H40.4147C40.155 33.6264 39.8956 33.6088 39.6353 33.5911C37.3237 33.3452 35.947 32.2901 35.947 31.059V29.4592C35.947 28.0526 36.6485 27.2434 38.2589 26.7334C38.7784 26.5754 39.35 26.505 40.441 26.505ZM61.4706 38.6101L64.1318 41.0488H60.9946L58.8419 39.0756L56.6745 39.2152H53.7849C53.2905 39.2152 52.7699 39.1447 52.1973 38.9861C50.4797 38.5105 49.6462 37.5945 49.6462 36.0787V29.5594C49.6462 27.9028 50.7921 26.898 53.0562 26.5809C53.2905 26.5456 53.5508 26.5281 53.7849 26.5281H58.9133C59.1735 26.5281 59.4078 26.5456 59.668 26.5809C61.9321 26.898 63.0774 27.9028 63.0774 29.5594V36.0787C63.0775 37.4223 62.5918 38.1418 61.4706 38.6101ZM60.553 29.7181C60.553 29.6476 60.553 29.5594 60.527 29.4706C60.3709 28.7661 59.6682 28.3607 58.6272 28.3607H54.5405C53.3426 28.3607 52.5626 28.8893 52.5626 29.718V35.9199C52.5626 36.0081 52.5886 36.0961 52.6139 36.2018C52.7701 36.96 53.4734 37.3828 54.5405 37.3828H56.9943L54.74 35.3161H57.8772L59.8437 37.1185C60.2054 36.922 60.4442 36.6225 60.527 36.237C60.553 36.1497 60.553 36.0609 60.553 35.9727V29.7181ZM17.4559 26.5224C15.4038 25.872 14.0268 26.4344 13.4037 27.8411L9.2994 37.1606L5.3252 27.8411C4.72761 26.4344 3.32494 25.872 1.27301 26.5224C0.415778 26.786 0 27.2962 0 28.3506V39.1649H2.70119V28.333L6.88368 37.7758C7.37713 38.919 8.05254 39.3234 9.37706 39.3234C10.7021 39.3234 11.3513 38.919 11.8451 37.7758L16.0273 28.333V39.1649H18.7289V28.3506C18.7288 27.2962 18.3132 26.786 17.4559 26.5224ZM31.1323 30.3197V37.4249C31.085 37.4249 26.013 37.4371 25.258 37.4249C23.7781 37.4017 23.6504 36.6403 23.6757 36.3162V30.3481H20.975C21.0341 30.4077 20.9744 36.3786 20.9763 36.5046C20.9973 37.8664 22.6986 39.0497 25.37 39.0753H31.1119V39.7942C31.1122 40.0896 31.3175 40.9672 29.5788 41.1542C29.5574 41.1555 21.0485 41.1542 21.0338 41.1542V43H29.5639C30.9168 42.9593 33.8521 42.4401 33.837 40.0503C33.8367 40.0089 33.8521 30.3194 33.8394 30.3194H31.1323V30.3197ZM80.3385 37.4249L80.991 38.4387H80.5453L79.9508 37.4412H79.595V38.4387H79.2133V36.1308H80.0994C80.662 36.1308 80.9542 36.3252 80.9542 36.7941C80.9542 37.2148 80.6886 37.3871 80.3385 37.4249ZM80.0034 37.1174C80.2904 37.1174 80.54 37.0902 80.54 36.7677C80.54 36.4982 80.2637 36.4547 80.0354 36.4547H79.595V37.1174H80.0034ZM82 37.2847C82 38.4921 81.0604 39.3058 80.0087 39.3058C78.9583 39.3058 78.0183 38.4921 78.0183 37.2847C78.0183 36.0772 78.9583 35.2635 80.0087 35.2635C81.0604 35.2635 82 36.0772 82 37.2847ZM81.5542 37.2847C81.5542 36.3679 80.8642 35.6835 80.0087 35.6835C79.1438 35.6835 78.4639 36.3679 78.4639 37.2847C78.4639 38.2008 79.1438 38.8858 80.0087 38.8858C80.8642 38.8858 81.5542 38.2008 81.5542 37.2847ZM58.0198 5.20357C57.6735 5.19706 57.4285 5.2417 57.1697 5.29938V5.34712H57.217C57.3825 5.69174 57.6742 5.91366 57.8783 6.21054C58.0353 6.54636 58.1927 6.88169 58.3501 7.21702C58.3661 7.20105 58.382 7.18524 58.3974 7.16928C58.6903 6.96022 58.8238 6.62555 58.8225 6.11457C58.7051 5.98911 58.6876 5.83236 58.5861 5.68294C58.4517 5.48367 58.1901 5.37108 58.0198 5.20357ZM80.8735 29.8001C81.0964 29.9661 81.2458 30.2236 81.5348 30.3279C81.5348 30.3116 81.5348 30.2954 81.5348 30.2798C81.3827 30.0839 81.344 29.8136 81.2044 29.6083C81.0003 29.4011 80.7945 29.193 80.5904 28.9849C79.99 28.1759 79.2285 27.4658 78.4185 26.8757C77.7732 26.4046 76.3271 25.7691 76.0575 25.0061C76.0421 24.9898 76.026 24.9737 76.01 24.9574C76.4678 24.9052 77.0042 24.7371 77.4268 24.6219C78.1367 24.4286 78.7713 24.4788 79.5041 24.2864C79.8351 24.1901 80.1653 24.094 80.4958 23.999C80.4958 23.9346 80.4958 23.8711 80.4958 23.8065C80.1252 23.4204 79.8611 22.9094 79.4574 22.5599C78.3995 21.6461 77.2459 20.7324 76.0573 19.9711C75.3987 19.5484 74.5837 19.2742 73.8852 18.9161C73.6503 18.7958 73.2379 18.7331 73.0824 18.5325C72.716 18.0574 72.5159 17.4553 72.2328 16.9021C71.6404 15.7432 71.0577 14.4774 70.5325 13.258C70.1748 12.4267 69.9407 11.6068 69.4941 10.8607C67.3501 7.28138 65.0417 5.1208 61.4669 2.99721C60.7056 2.54571 59.79 2.36745 58.8225 2.13445C58.3034 2.10267 57.7833 2.07025 57.2642 2.03847C56.9473 1.90405 56.6177 1.51039 56.32 1.31926C55.1354 0.559635 52.0972 -1.09306 51.2204 1.07974C50.6665 2.45087 52.0478 3.78893 52.5422 4.48403C52.8893 4.97139 53.333 5.51805 53.5814 6.06601C53.7443 6.42627 53.772 6.78783 53.9125 7.16895C54.2555 8.10813 54.5537 9.12976 54.9976 9.9979C55.2224 10.4369 55.47 10.8998 55.7537 11.2923C55.9278 11.5333 56.2253 11.6394 56.272 12.0115C55.9811 12.4259 55.9644 13.0688 55.8009 13.5937C55.0627 15.9566 55.3411 18.8931 56.4148 20.6421C56.7438 21.1786 57.5198 22.3305 58.5861 21.8884C59.519 21.5026 59.311 20.3066 59.5779 19.2516C59.6379 19.0119 59.6013 18.8361 59.7194 18.6762V18.724C60.0031 19.2993 60.2865 19.8746 60.5696 20.4498C61.1989 21.4785 62.3153 22.5542 63.2614 23.2791C63.7514 23.6552 64.1376 24.3056 64.7723 24.5258C64.7723 24.5095 64.7723 24.4933 64.7723 24.477C64.7562 24.477 64.7402 24.477 64.7249 24.477C64.6014 24.2833 64.4091 24.202 64.2531 24.0461C63.8834 23.678 63.4725 23.2208 63.1666 22.7992C62.3058 21.6132 61.5457 20.3149 60.8531 18.9638C60.5221 18.3184 60.2345 17.6065 59.9554 16.95C59.8481 16.6967 59.8494 16.3139 59.625 16.1828C59.3195 16.6638 58.8697 17.0532 58.6333 17.6212C58.2556 18.5294 58.207 19.6369 58.0669 20.7855C57.9841 20.8158 58.0208 20.7951 57.972 20.8332C57.3141 20.6726 57.0832 19.985 56.8389 19.3951C56.221 17.9039 56.1062 15.5023 56.6501 13.7854C56.7908 13.3414 57.4276 11.9423 57.1692 11.532C57.0463 11.1224 56.6412 10.8859 56.4145 10.5729C56.1327 10.1861 55.8525 9.67724 55.6577 9.2303C55.1526 8.06756 54.9164 6.76225 54.3838 5.58664C54.1289 5.02499 53.6984 4.45601 53.3447 3.95627C52.9532 3.40293 52.5146 2.99558 52.2115 2.3259C52.1035 2.08817 51.9566 1.70771 52.1168 1.46313C52.1673 1.29808 52.2396 1.22932 52.4005 1.17538C52.6748 0.960956 53.4368 1.24675 53.7223 1.36716C54.4791 1.68636 55.1116 1.99057 55.753 2.42187C56.0607 2.62913 56.3721 3.03029 56.7439 3.14125H57.169C57.8343 3.29621 58.5791 3.18964 59.1996 3.3811C60.2974 3.71985 61.2811 4.24679 62.1744 4.81969C64.8958 6.56428 67.1212 9.04846 68.6434 12.0115C68.8883 12.4886 68.9945 12.9439 69.2099 13.4501C69.6449 14.4706 70.1936 15.5204 70.6265 16.5186C71.0583 17.5138 71.4794 18.5187 72.09 19.3474C72.4109 19.7827 73.6514 20.0164 74.2154 20.2585C74.6105 20.4278 75.2577 20.6048 75.6314 20.8332C76.3468 21.2714 77.0389 21.7924 77.7094 22.2721C78.0444 22.5121 79.0748 23.0378 79.1255 23.4702C77.4651 23.4256 76.1966 23.5822 75.1121 24.0462C74.8039 24.1777 74.3127 24.1816 74.262 24.5732C74.4314 24.7534 74.4582 25.0232 74.593 25.2446C74.8512 25.6702 75.2883 26.24 75.6788 26.5395C76.1051 26.8662 76.5443 27.2157 77.0007 27.4984C77.8135 28.0019 78.7211 28.2892 79.5033 28.7931C79.966 29.0907 80.4239 29.4646 80.8735 29.8001ZM67.4765 35.9654V26.5048H64.7752V35.9828C64.7752 37.8638 66.1518 38.919 68.9312 39.1302C69.1906 39.1471 69.4503 39.1647 69.7106 39.1647H76.7501V37.3365H69.6584C68.0744 37.3367 67.4765 36.9316 67.4765 35.9654Z" fill="url(#paint0_linear_150_11656)"/>
<defs>
<linearGradient id="paint0_linear_150_11656" x1="41" y1="0" x2="41" y2="43" gradientUnits="userSpaceOnUse">
<stop stop-color="white"/>
<stop offset="1" stop-color="white" stop-opacity="0.7"/>
</linearGradient>
</defs>
</svg>
