<svg xmlns="http://www.w3.org/2000/svg" width="69" height="43" viewBox="0 0 69 43" fill="none">
  <path d="M34.1011 42.918C33.8747 42.918 33.6483 42.8537 33.4434 42.7465L31.3734 41.5251C31.0608 41.3536 31.2117 41.2893 31.3195 41.2572C31.7292 41.1179 31.8155 41.0858 32.2575 40.8286C32.3006 40.8072 32.3653 40.8179 32.4084 40.8393L34.0041 41.7822C34.058 41.8144 34.1442 41.8144 34.1981 41.7822L40.4297 38.2035C40.4836 38.1714 40.5267 38.1071 40.5267 38.0321V30.8854C40.5267 30.8104 40.4944 30.7461 40.4297 30.7139L34.1981 27.146C34.1442 27.1138 34.0687 27.1138 34.0041 27.146L27.7725 30.7139C27.7078 30.7461 27.6755 30.8211 27.6755 30.8854V38.0321C27.6755 38.0964 27.7186 38.1606 27.7725 38.1928L29.4759 39.1678C30.4031 39.6286 30.9745 39.0821 30.9745 38.5464V31.4854C30.9745 31.389 31.05 31.3033 31.1578 31.3033H31.9448C32.0419 31.3033 32.1281 31.3783 32.1281 31.4854V38.5464C32.1281 39.7786 31.4597 40.475 30.2845 40.475C29.9287 40.475 29.6377 40.475 28.8506 40.0893L27.2119 39.1571C26.813 38.9214 26.5542 38.4928 26.5542 38.0321V30.8854C26.5542 30.4247 26.8022 29.9853 27.2119 29.7603L33.4434 26.1816C33.8423 25.9566 34.3598 25.9566 34.748 26.1816L40.9795 29.7603C41.3784 29.9961 41.6372 30.4247 41.6372 30.8854V38.0321C41.6372 38.4928 41.3892 38.9321 40.9795 39.1571L34.748 42.7358C34.5647 42.8537 34.3383 42.918 34.1011 42.918ZM39.1359 35.8677C39.1359 34.5284 38.2303 34.1748 36.3112 33.9176C34.3706 33.6605 34.1766 33.5319 34.1766 33.0819C34.1766 32.7069 34.3383 32.214 35.7722 32.214C37.0552 32.214 37.5295 32.4926 37.7236 33.3498C37.7452 33.4355 37.8098 33.489 37.8961 33.489H38.7047C38.7586 33.489 38.8017 33.4676 38.8341 33.4355C38.8664 33.3926 38.888 33.3498 38.8772 33.2962C38.7478 31.8176 37.7667 31.1318 35.7722 31.1318C33.9933 31.1318 32.9367 31.8818 32.9367 33.1247C32.9367 34.4855 33.9933 34.8498 35.6967 35.0212C37.7344 35.2248 37.8961 35.5141 37.8961 35.9106C37.8961 36.607 37.3355 36.8963 36.0202 36.8963C34.3706 36.8963 34.0041 36.4892 33.8855 35.6748C33.8747 35.5891 33.7992 35.5248 33.7022 35.5248H32.8936C32.7966 35.5248 32.7103 35.5998 32.7103 35.707C32.7103 36.7463 33.2817 37.9892 36.0094 37.9892C38.0039 37.9892 39.1359 37.2178 39.1359 35.8677ZM45.0117 30.4997C45.0117 31.1532 44.4727 31.689 43.815 31.689C43.1573 31.689 42.6183 31.1532 42.6183 30.4997C42.6183 29.8246 43.1789 29.3103 43.815 29.3103C44.4619 29.2996 45.0117 29.8246 45.0117 30.4997ZM44.8177 30.4997C44.8177 29.9425 44.3648 29.5032 43.8042 29.5032C43.2544 29.5032 42.8016 29.9425 42.8016 30.4997C42.8016 31.0568 43.2544 31.5068 43.8042 31.5068C44.3648 31.4961 44.8177 31.0461 44.8177 30.4997ZM44.3325 31.164H44.0522C44.0414 31.0997 43.9983 30.7568 43.9983 30.7461C43.9767 30.6711 43.9552 30.6282 43.8581 30.6282H43.6209V31.164H43.3622V29.8246H43.8258C43.9875 29.8246 44.3002 29.8246 44.3002 30.1782C44.3002 30.4247 44.1384 30.4782 44.0414 30.5104C44.2247 30.5211 44.2355 30.6389 44.2678 30.8104C44.2786 30.9175 44.3002 31.0997 44.3325 31.164ZM44.0306 30.2211C44.0306 30.0389 43.9013 30.0389 43.8366 30.0389H43.6209V30.4139H43.8258C43.9983 30.4139 44.0306 30.2961 44.0306 30.2211ZM14.8027 14.9526C14.8027 14.6634 14.6517 14.4062 14.4038 14.2669L7.79484 10.4846C7.68703 10.4203 7.55766 10.3882 7.42828 10.3775H7.36359C7.23422 10.3775 7.11563 10.4203 6.99703 10.4846L0.398906 14.2669C0.150938 14.4062 0 14.6741 0 14.9526L0.0107812 25.1316C0.0107812 25.2709 0.08625 25.3995 0.204844 25.4745C0.323438 25.5495 0.474375 25.5495 0.60375 25.4745L4.52813 23.2351C4.77609 23.0851 4.92703 22.8279 4.92703 22.5494V17.792C4.92703 17.5135 5.07797 17.2456 5.32594 17.1063L6.99703 16.1527C7.12641 16.0777 7.25578 16.0455 7.39594 16.0455C7.53609 16.0455 7.67625 16.0777 7.79484 16.1527L9.46594 17.1063C9.71391 17.2456 9.86484 17.5135 9.86484 17.792V22.5494C9.86484 22.8279 10.0158 23.0958 10.2638 23.2351L14.1881 25.4745C14.3067 25.5495 14.4684 25.5495 14.587 25.4745C14.7056 25.4102 14.7811 25.2709 14.7811 25.1316L14.8027 14.9526ZM50.9414 3.84152V22.7422C50.9414 23.0208 50.7905 23.2887 50.5425 23.428L43.9336 27.221C43.6856 27.3603 43.3838 27.3603 43.1358 27.221L36.5269 23.428C36.2789 23.2887 36.128 23.0208 36.128 22.7422V15.1562C36.128 14.8776 36.2789 14.6098 36.5269 14.4705L43.1358 10.6775C43.3838 10.5382 43.6856 10.5382 43.9336 10.6775L45.5831 11.6204C45.7664 11.7275 46.0036 11.5882 46.0036 11.3847V1.31286C46.0036 1.01284 46.327 0.81998 46.5966 0.969986L50.5317 3.15578C50.7797 3.28436 50.9414 3.55223 50.9414 3.84152ZM45.982 17.6527C45.982 17.5777 45.9389 17.5135 45.885 17.4813L43.6209 16.1741C43.5563 16.142 43.4808 16.142 43.4161 16.1741L41.152 17.4813C41.0873 17.5135 41.055 17.5777 41.055 17.6527V20.2564C41.055 20.3314 41.0981 20.3957 41.152 20.4279L43.4161 21.7243C43.4808 21.7565 43.5563 21.7565 43.6102 21.7243L45.8742 20.4279C45.9389 20.3957 45.9712 20.3314 45.9712 20.2564V17.6527H45.982ZM68.6011 17.5777C68.8491 17.4385 69 17.1706 69 16.892V15.0598C69 14.7812 68.8491 14.5133 68.6011 14.3741L62.0353 10.5811C61.7873 10.4418 61.4855 10.4418 61.2375 10.5811L54.6286 14.3741C54.3806 14.5133 54.2297 14.7812 54.2297 15.0598V22.6458C54.2297 22.9351 54.3806 23.1922 54.6286 23.3315L61.1944 27.0495C61.4316 27.1888 61.7334 27.1888 61.9814 27.0495L65.9489 24.853C66.2184 24.703 66.2184 24.3173 65.9489 24.1673L59.2969 20.3743C59.1675 20.2993 59.092 20.1707 59.092 20.0314V17.6527C59.092 17.5135 59.1675 17.3849 59.2969 17.3099L61.3669 16.1205C61.4855 16.0455 61.6472 16.0455 61.7658 16.1205L63.8358 17.3099C63.9544 17.3849 64.0406 17.5135 64.0406 17.6527V19.5171C64.0406 19.8171 64.3748 20.01 64.6444 19.86L68.6011 17.5777ZM60.2672 17.9528C60.2241 17.9849 60.1917 18.0278 60.1917 18.0813V19.5385C60.1917 19.5921 60.2241 19.6457 60.2672 19.6671L61.5394 20.3957C61.5825 20.4279 61.6472 20.4279 61.6903 20.3957L62.9625 19.6671C63.0056 19.635 63.038 19.5921 63.038 19.5385V18.0813C63.038 18.0278 63.0056 17.9742 62.9625 17.9528L61.6903 17.2242C61.6472 17.192 61.5825 17.192 61.5394 17.2242L60.2672 17.9528ZM32.8612 22.6136V15.0705C32.8612 14.7919 32.6888 14.5241 32.4408 14.3848L25.8534 10.6132C25.627 10.4846 25.3144 10.4632 25.0556 10.6132L18.4683 14.3848C18.2203 14.5241 18.0478 14.7812 18.0478 15.0705V22.6136C18.0478 22.9137 18.2527 23.1708 18.4791 23.2994L25.0772 27.071C25.3359 27.221 25.6378 27.2102 25.875 27.071L32.4516 23.2994C32.6456 23.1922 32.7858 23.0101 32.8397 22.7958C32.8505 22.7422 32.8612 22.6779 32.8612 22.6136ZM24.8508 9.23101L24.7645 9.28458H24.8831L24.8508 9.23101ZM33.0661 23.1815L33.023 23.1065V23.203L33.0661 23.1815Z" fill="url(#paint0_linear_150_11619)"/>
  <defs>
    <linearGradient id="paint0_linear_150_11619" x1="34.5" y1="0.917969" x2="34.5" y2="42.918" gradientUnits="userSpaceOnUse">
      <stop stop-color="white"/>
      <stop offset="1" stop-color="white" stop-opacity="0.7"/>
    </linearGradient>
  </defs>
</svg>