<svg width="51" height="51" viewBox="0 0 51 51" fill="none" xmlns="http://www.w3.org/2000/svg">
<g clip-path="url(#clip0_150_11659)" filter="url(#filter0_d_150_11659)">
<path d="M34.892 0C33.1699 0.0124279 31.4578 0.255403 29.8041 0.722048L29.6878 0.757882C28.6447 0.57905 27.5888 0.480201 26.5298 0.462254C24.3543 0.42642 22.4853 0.938842 20.9783 1.79168C19.4935 1.2918 16.4131 0.430004 13.1665 0.602005C10.906 0.722048 8.43869 1.38855 6.61037 3.26086C4.7876 5.13317 3.82358 8.03032 4.02673 11.972C4.08213 13.0596 4.40162 14.8333 4.93165 17.1303C5.46168 19.4272 6.20593 22.1165 7.13486 24.5693C8.06379 27.024 9.08137 29.2277 10.6714 30.7256C11.4656 31.4763 12.5589 32.107 13.8479 32.055C14.7528 32.0192 15.571 31.634 16.2764 31.066C16.6199 31.5049 16.9874 31.6967 17.3217 31.874C17.7428 32.098 18.1528 32.2503 18.5775 32.3506C19.3402 32.5352 20.6459 32.7824 22.1751 32.5298C22.6959 32.4456 23.2443 32.2807 23.791 32.046C23.8113 32.6373 23.8353 33.216 23.8593 33.8019C23.935 35.6581 23.9831 37.3727 24.5574 38.8759C24.6497 39.1214 24.9028 40.3863 25.9 41.5025C26.8973 42.6205 28.8512 43.3175 31.0766 42.8553C32.6463 42.5292 34.6427 41.9415 35.9687 40.1104C37.2799 38.3008 37.8709 35.7047 37.9872 31.4942C38.0168 31.2667 38.0518 31.0732 38.0888 30.8922L38.4009 30.9191H38.4378C40.1129 30.9925 41.9301 30.7614 43.4482 30.077C44.7926 29.4732 45.8102 28.8622 46.5507 27.7782C46.7354 27.5095 46.9386 27.1852 46.994 26.6262C47.0494 26.0672 46.7188 25.1929 46.1703 24.7897C45.0715 23.9799 44.3808 24.2881 43.6402 24.4368C42.9107 24.5932 42.1673 24.6808 41.4204 24.6983C43.5553 21.2099 45.0862 17.5047 45.9598 14.226C46.4769 12.2909 46.7668 10.5064 46.7908 8.94587C46.8148 7.38532 46.6837 6.00393 45.7197 4.80888C42.7076 1.07501 38.4729 0.0430004 35.1967 0.00716673C35.0951 0.00537505 34.9936 0.00358337 34.892 0.00537505V0ZM34.8052 1.14668C37.9041 1.11801 41.8636 1.96189 44.7058 5.48613C45.3448 6.27806 45.535 7.43548 45.5129 8.86166C45.4888 10.2861 45.2174 11.9917 44.7206 13.8605C43.7566 17.4797 41.9356 21.6991 39.3705 25.4849C39.461 25.5473 39.559 25.5991 39.6622 25.639C40.1978 25.854 41.4185 26.0385 43.8544 25.553C44.4676 25.4276 44.9163 25.3434 45.3817 25.6874C45.4948 25.7804 45.5842 25.8975 45.6428 26.0296C45.7015 26.1617 45.7278 26.3052 45.7197 26.4488C45.6948 26.6663 45.6121 26.8738 45.4796 27.0508C45.0087 27.737 44.0798 28.3874 42.8886 28.9231C41.8341 29.3997 40.3215 29.6488 38.9808 29.6631C38.3086 29.6703 37.688 29.6201 37.1617 29.4606L37.1285 29.4481C36.9253 31.3473 36.4581 35.0973 36.1534 36.8083C35.9096 38.1879 35.483 39.2844 34.6685 40.105C33.856 40.9256 32.7054 41.4201 31.1578 41.7426C29.2408 42.1422 27.8428 41.7122 26.9416 40.9758C26.0422 40.2412 25.6304 39.2665 25.3829 38.6699C25.213 38.2578 25.1244 37.7239 25.0394 37.0108C24.9545 36.2977 24.8917 35.4252 24.8492 34.4415C24.7926 32.9354 24.7742 31.4281 24.7938 29.9211C23.993 30.6326 22.998 31.1054 21.9276 31.2828C20.6552 31.4924 19.5194 31.2864 18.8416 31.1215C18.5075 31.0401 18.185 30.9192 17.8813 30.7614C17.5673 30.5984 17.2682 30.4138 17.0687 30.0501C16.9515 29.8418 16.9142 29.5999 16.9634 29.3675C17.0259 29.1318 17.1675 28.9231 17.366 28.7744C17.7317 28.486 18.2156 28.3247 18.945 28.1778C20.2729 27.9126 20.7364 27.7317 21.019 27.5149C21.2591 27.3285 21.5305 26.9523 22.0107 26.4004C22.0084 26.376 22.0066 26.3515 22.0052 26.327C21.1458 26.3035 20.3043 26.0838 19.5489 25.6856C19.2719 25.9687 17.8573 27.4199 16.1324 29.4338C15.4066 30.2759 14.6051 30.7596 13.7593 30.7937C12.9134 30.8295 12.1489 30.4156 11.4988 29.8046C10.2005 28.5809 9.16447 26.4757 8.2614 24.0963C7.36017 21.717 6.627 19.0671 6.1062 16.8096C5.58356 14.552 5.27515 12.7317 5.23083 11.8538C5.03692 8.12349 5.9363 5.60976 7.47836 4.02412C9.02227 2.43848 11.1387 1.83827 13.2015 1.7236C16.9043 1.51756 20.4206 2.76994 21.1316 3.03869C22.5019 2.13569 24.2675 1.5731 26.4725 1.60893C27.5194 1.62318 28.561 1.75423 29.577 1.99952L29.6139 1.98339C30.0611 1.8309 30.5167 1.70289 30.9787 1.59997C32.233 1.31609 33.5154 1.1653 34.8034 1.15026L34.8052 1.14668ZM35.0859 2.3471H34.8163C33.7582 2.36142 32.7042 2.47664 31.6694 2.69111C33.9705 3.68012 35.7083 5.20305 36.9327 6.72239C37.7832 7.77437 38.4862 8.93113 39.0233 10.1624C39.2264 10.6354 39.3631 11.035 39.4406 11.3449C39.4794 11.5008 39.5053 11.6316 39.5145 11.7678C39.5182 11.8359 39.5219 11.9057 39.4923 12.0258C39.4923 12.0311 39.4831 12.0437 39.4813 12.0491C39.5367 13.6186 39.1359 14.6828 39.0879 16.1807C39.051 17.2664 39.3372 18.5421 39.4074 19.9343C39.4739 21.2422 39.3114 22.6791 38.436 24.0892C38.5099 24.1752 38.5763 24.2612 38.6465 24.3472C40.9624 20.8086 42.6319 16.8938 43.522 13.5559C43.9985 11.7588 44.2515 10.1302 44.2737 8.84016C44.2921 7.55015 44.0447 6.61489 43.7289 6.22431C41.2505 3.14978 37.8967 2.3686 35.0859 2.3471ZM26.2398 2.80578C24.0569 2.81115 22.4909 3.45078 21.3034 4.40933C20.079 5.40013 19.2571 6.75644 18.7179 8.14499C18.077 9.79334 17.8573 11.3879 17.7705 12.4701L17.7945 12.4558C18.4538 12.0974 19.3199 11.7391 20.247 11.5313C21.1741 11.3252 22.1732 11.2607 23.0781 11.6011C23.9831 11.9416 24.731 12.7424 25.0025 13.9572C26.3026 19.7927 24.598 21.9624 23.9701 23.6C23.7319 24.1936 23.5278 24.7995 23.3588 25.415C23.4383 25.3971 23.5177 25.3756 23.5971 25.3684C24.0403 25.3326 24.3875 25.4759 24.5943 25.5619C25.2259 25.8164 25.6599 26.3503 25.8945 26.9594C25.9554 27.1189 25.9997 27.2909 26.0256 27.4683C26.0529 27.5411 26.0654 27.6184 26.0625 27.6958C25.9925 29.9279 26.0005 32.1616 26.0865 34.3931C26.129 35.3571 26.1918 36.2063 26.2712 36.8764C26.3506 37.5447 26.4633 38.0535 26.5353 38.2255C26.7717 38.7989 27.117 39.5496 27.7413 40.0602C28.3655 40.5691 29.2612 40.9095 30.8974 40.5691C32.3157 40.2734 33.1911 39.8631 33.7765 39.2737C34.3601 38.6842 34.7092 37.8636 34.9326 36.6077C35.2669 34.7264 35.9391 29.2707 36.0204 28.2441C35.9835 27.4701 36.1016 26.8752 36.3565 26.4219C36.6187 25.9561 37.025 25.6712 37.3759 25.5171C37.5514 25.4401 37.7157 25.3881 37.8506 25.3505C37.7078 25.1515 37.5581 24.9573 37.4018 24.7682C36.8959 24.173 36.4816 23.5097 36.1718 22.7992C36.0235 22.5057 35.8652 22.2171 35.6972 21.9338C35.4516 21.5038 35.1413 20.9663 34.8163 20.3625C34.1662 19.1531 33.4589 17.6875 33.0914 16.2595C32.7257 14.8333 32.6722 13.357 33.6103 12.316C34.4414 11.3915 35.9004 11.0081 38.0906 11.2231C38.026 11.035 37.9872 10.8791 37.8783 10.6283C37.3831 9.49751 36.7367 8.43488 35.9558 7.46773C34.0997 5.16542 31.095 2.88282 26.4522 2.80936H26.2398V2.80578ZM13.9735 2.89894C13.739 2.89894 13.5044 2.90611 13.2717 2.91865C11.4065 3.02257 9.64279 3.54753 8.38144 4.84471C7.11824 6.14189 6.28719 8.26862 6.46817 11.7893C6.50326 12.4558 6.80244 14.3227 7.31585 16.5408C7.8274 18.7589 8.55319 21.3694 9.42487 23.6753C10.2984 25.9812 11.3566 27.9879 12.3613 28.9375C12.8673 29.4123 13.3068 29.604 13.7057 29.5878C14.1065 29.5699 14.5885 29.346 15.1776 28.6598C16.2517 27.4028 17.3665 26.179 18.5203 24.9904C17.7016 24.3008 17.0751 23.4223 16.6984 22.436C16.3218 21.4497 16.2071 20.3872 16.3651 19.3466C16.5553 18.0225 16.5812 16.7845 16.559 15.8062C16.5368 14.853 16.4667 14.2188 16.4667 13.8228C16.4663 13.8115 16.4663 13.8001 16.4667 13.7888V13.7798L16.4648 13.7691C16.4637 11.7065 16.8337 9.65774 17.5581 7.71857C18.0752 6.38556 18.8453 5.03105 19.9995 3.93454C18.8656 3.57262 16.8526 3.02078 14.6734 2.91686C14.4397 2.90521 14.2075 2.89924 13.9735 2.89894ZM36.8699 12.3626C35.6159 12.3787 34.9123 12.6923 34.543 13.1026C34.0203 13.6849 33.9705 14.7061 34.2955 15.9639C34.6187 17.2234 35.2872 18.6317 35.9151 19.8017C36.2291 20.3876 36.5338 20.9143 36.7794 21.3425C37.0269 21.7725 37.2079 22.0771 37.3187 22.3369C37.4202 22.577 37.5329 22.7884 37.6474 22.9855C38.1331 21.9911 38.2199 21.0146 38.17 19.997C38.1054 18.7374 37.8044 17.4492 37.8487 16.1449C37.8986 14.6201 38.2088 13.6275 38.2365 12.4486C37.7833 12.3917 37.3269 12.3629 36.8699 12.3626ZM21.6635 12.5687C21.2804 12.5721 20.8989 12.6166 20.5259 12.7012C19.7824 12.8765 19.0664 13.147 18.3965 13.5057C18.17 13.6236 17.9543 13.7603 17.752 13.9142L17.7114 13.95C17.7225 14.2116 17.776 14.8459 17.7982 15.7794C17.8203 16.8006 17.7945 18.1032 17.5913 19.5132C17.15 22.577 19.4418 25.114 22.1344 25.1176C22.2914 24.4887 22.55 23.8509 22.8085 23.179C23.5583 21.2189 25.0339 19.7891 23.791 14.2098C23.5878 13.2961 23.1852 12.927 22.6312 12.7192C22.3207 12.6126 21.9928 12.5616 21.6635 12.5687ZM36.2845 12.9342H36.3768C36.4987 12.9377 36.6114 12.9503 36.7092 12.9736C36.809 12.9951 36.8939 13.0273 36.9641 13.0721C37.0001 13.0937 37.031 13.1225 37.0549 13.1564C37.0787 13.1904 37.095 13.2288 37.1026 13.2692L37.1008 13.2835C37.1044 13.3686 37.0819 13.4528 37.0361 13.5254C36.9817 13.6237 36.9133 13.7142 36.833 13.7942C36.6456 13.9943 36.3947 14.128 36.1201 14.174C35.8529 14.2053 35.5832 14.1396 35.3629 13.9895C35.2728 13.9306 35.1919 13.8594 35.1229 13.778C35.0631 13.7141 35.0228 13.6353 35.0065 13.5505C35.0026 13.5092 35.0075 13.4675 35.0209 13.4281C35.0342 13.3886 35.0557 13.3522 35.0841 13.3212C35.1447 13.2544 35.2181 13.1996 35.3001 13.1599C35.4774 13.0632 35.7175 12.9915 35.989 12.9521C36.0906 12.9377 36.1903 12.9306 36.2845 12.9288V12.9342ZM21.8426 13.2352C21.9405 13.2352 22.0439 13.2441 22.1492 13.2585C22.4318 13.2961 22.6829 13.3695 22.875 13.477C22.9687 13.5245 23.0521 13.589 23.1206 13.667C23.1579 13.7083 23.1861 13.7567 23.2032 13.8092C23.2204 13.8616 23.2262 13.9168 23.2203 13.9715C23.2026 14.0746 23.1545 14.1704 23.0818 14.2475C23.0063 14.3375 22.9173 14.416 22.8177 14.4804C22.5776 14.6455 22.2825 14.7177 21.9904 14.6828C21.6918 14.6352 21.4185 14.4913 21.2147 14.2743C21.128 14.187 21.0546 14.088 20.9968 13.9805C20.9359 13.8859 20.9093 13.7743 20.9211 13.6634C20.9488 13.4699 21.1132 13.3695 21.2738 13.314C21.4568 13.2573 21.6489 13.233 21.8408 13.2423L21.8426 13.2352ZM38.5745 26.3915L38.569 26.3933C38.2975 26.4882 38.074 26.5277 37.8856 26.6083C37.6951 26.6794 37.5381 26.8158 37.4443 26.9917C37.3279 27.1977 37.2282 27.5632 37.2577 28.185C37.3413 28.2408 37.4336 28.2831 37.5311 28.3104C37.8469 28.4035 38.3769 28.4645 38.9679 28.4555C40.1461 28.443 41.5958 28.176 42.3659 27.8284C42.9977 27.5437 43.5842 27.1726 44.1075 26.7265C41.5349 27.2425 40.0796 27.1046 39.1876 26.748C38.9661 26.6586 38.7595 26.5397 38.5745 26.3915ZM23.743 26.5599H23.7042C23.6063 26.5689 23.4641 26.6011 23.1889 26.8967C22.5463 27.5955 22.321 28.0345 21.7909 28.4448C21.2609 28.8533 20.5721 29.0718 19.1962 29.346C18.7604 29.432 18.511 29.5269 18.3448 29.604C18.3984 29.647 18.3928 29.6577 18.4741 29.6989C18.6754 29.8064 18.934 29.9014 19.1426 29.9534C19.7336 30.0967 20.705 30.2633 21.7189 30.0967C22.7328 29.9283 23.7873 29.4571 24.6867 28.2333C24.8418 28.0219 24.8584 27.7102 24.731 27.3751C24.6017 27.0401 24.3192 26.7516 24.1197 26.671C24.001 26.6154 23.8738 26.5791 23.743 26.5635V26.5599Z" fill="url(#paint0_linear_150_11659)"/>
</g>
<defs>
<filter id="filter0_d_150_11659" x="0" y="0" width="51" height="51" filterUnits="userSpaceOnUse" color-interpolation-filters="sRGB">
<feFlood flood-opacity="0" result="BackgroundImageFix"/>
<feColorMatrix in="SourceAlpha" type="matrix" values="0 0 0 0 0 0 0 0 0 0 0 0 0 0 0 0 0 0 127 0" result="hardAlpha"/>
<feOffset dy="4"/>
<feGaussianBlur stdDeviation="2"/>
<feComposite in2="hardAlpha" operator="out"/>
<feColorMatrix type="matrix" values="0 0 0 0 0 0 0 0 0 0 0 0 0 0 0 0 0 0 0.25 0"/>
<feBlend mode="normal" in2="BackgroundImageFix" result="effect1_dropShadow_150_11659"/>
<feBlend mode="normal" in="SourceGraphic" in2="effect1_dropShadow_150_11659" result="shape"/>
</filter>
<linearGradient id="paint0_linear_150_11659" x1="25.5" y1="0" x2="25.5" y2="43" gradientUnits="userSpaceOnUse">
<stop stop-color="white"/>
<stop offset="1" stop-color="white" stop-opacity="0.7"/>
</linearGradient>
<clipPath id="clip0_150_11659">
<rect width="43" height="43" fill="white" transform="translate(4)"/>
</clipPath>
</defs>
</svg>
