<svg xmlns="http://www.w3.org/2000/svg" width="59" height="51" viewBox="0 0 59 51" fill="none">
  <path d="M48.191 16.5272C47.5688 16.3223 46.9465 16.1287 46.3242 15.9466C46.4279 15.5254 46.5201 15.1042 46.6123 14.6831C48.0297 7.8986 47.0963 2.44599 43.9504 0.647426C40.9197 -1.07146 35.9762 0.715726 30.975 5.01862C30.4795 5.4398 29.9955 5.88375 29.5346 6.3277C29.2234 6.03174 28.9008 5.73577 28.5781 5.45119C23.335 0.852326 18.0803 -1.08284 14.9344 0.727109C11.9152 2.45737 11.0164 7.59125 12.284 14.0114C12.4107 14.6489 12.549 15.275 12.7104 15.9125C11.9729 16.1174 11.2469 16.345 10.567 16.5841C4.41348 18.69 0 22.0139 0 25.4517C0 29.0033 4.70156 32.5663 11.0971 34.7291C11.6156 34.8998 12.1342 35.0706 12.6643 35.2186C12.4914 35.9016 12.3416 36.5732 12.2033 37.2676C10.9934 43.5853 11.9383 48.594 14.9574 50.3129C18.0688 52.0886 23.3004 50.2673 28.3937 45.862C28.7971 45.5091 29.2004 45.1448 29.6037 44.7578C30.1107 45.2473 30.6408 45.714 31.1709 46.1693C36.1029 50.3584 40.9773 52.0545 43.985 50.3356C47.0963 48.5598 48.1104 43.1755 46.7967 36.6187C46.693 36.1179 46.5777 35.6056 46.451 35.082C46.8197 34.9795 47.177 34.8657 47.5342 34.7519C54.1832 32.5776 59 29.0602 59 25.4517C59 22.0025 54.4598 18.6558 48.191 16.5272ZM32.5998 6.86272C36.8865 3.17452 40.8852 1.72884 42.7059 2.76472C44.6533 3.86891 45.4023 8.33117 44.1809 14.1936C44.1002 14.5806 44.0195 14.9563 43.9158 15.3319C41.3576 14.7627 38.7648 14.3529 36.1605 14.1253C34.6625 12.008 33.0262 9.98175 31.2516 8.08073C31.701 7.65955 32.1389 7.26114 32.5998 6.86272ZM19.2672 31.3596C19.8549 32.35 20.4541 33.3403 21.0879 34.3079C19.2902 34.1144 17.5041 33.8298 15.741 33.4542C16.248 31.815 16.8818 30.1188 17.6193 28.3886C18.1494 29.3903 18.691 30.3807 19.2672 31.3596ZM15.7756 17.6655C17.435 17.3012 19.198 17.0053 21.0303 16.7776C20.4195 17.7224 19.8203 18.69 19.2557 19.669C18.691 20.6365 18.1379 21.6269 17.6193 22.6286C16.8934 20.9325 16.2826 19.2705 15.7756 17.6655ZM18.933 25.5086C19.6936 23.9377 20.5232 22.4009 21.399 20.887C22.2748 19.373 23.2197 17.9045 24.2107 16.4589C25.9393 16.3336 27.7023 16.2653 29.5 16.2653C31.2977 16.2653 33.0723 16.3336 34.7893 16.4589C35.7687 17.8932 36.7021 19.3616 37.5895 20.8642C38.4768 22.3668 39.3064 23.9035 40.09 25.4631C39.318 27.034 38.4883 28.5821 37.601 30.1075C36.7252 31.6214 35.7918 33.0899 34.8123 34.547C33.0953 34.6722 31.3092 34.7291 29.5 34.7291C27.6908 34.7291 25.9393 34.6722 24.2453 34.5697C23.2428 33.124 22.2979 31.6442 21.4105 30.1302C20.5232 28.6162 19.7051 27.0795 18.933 25.5086ZM39.7443 31.3369C40.332 30.3351 40.8852 29.322 41.4268 28.2975C42.1643 29.9481 42.8096 31.6214 43.3742 33.3403C41.5881 33.7387 39.7789 34.0461 37.9582 34.251C38.5805 33.2948 39.1682 32.3158 39.7443 31.3369ZM41.4037 22.6286C40.8621 21.6269 40.309 20.6252 39.7328 19.6462C39.1682 18.6786 38.5805 17.7224 37.9697 16.7776C39.825 17.0053 41.5996 17.3126 43.259 17.6883C42.7289 19.373 42.1066 21.0122 41.4037 22.6286ZM29.523 9.82238C30.733 11.1201 31.8738 12.4861 32.934 13.8976C30.6523 13.7952 28.3592 13.7952 26.0775 13.8976C27.2068 12.4292 28.3707 11.0632 29.523 9.82238ZM16.1559 2.84441C18.0918 1.72884 22.39 3.32251 26.9188 7.2839C27.2068 7.53433 27.4949 7.80753 27.7945 8.08073C26.0084 9.98175 24.3605 12.008 22.851 14.1253C20.2467 14.3529 17.6654 14.7514 15.1072 15.3091C14.9574 14.7286 14.8307 14.1367 14.7039 13.5447C13.6207 8.0352 14.3352 3.88029 16.1559 2.84441ZM13.3326 32.8508C12.8486 32.7142 12.3762 32.5663 11.9037 32.4069C9.44922 31.6442 6.66055 30.4376 4.64395 28.8553C3.48008 28.0585 2.69648 26.8291 2.47754 25.4517C2.47754 23.3685 6.11895 20.7048 11.3736 18.8949C12.0305 18.6672 12.6988 18.4623 13.3672 18.2688C14.1508 20.739 15.0957 23.1636 16.1904 25.5086C15.0842 27.8877 14.1277 30.3465 13.3326 32.8508ZM26.7689 44.0065C24.8676 45.7254 22.6666 47.0914 20.2697 48.0248C18.9906 48.6281 17.5156 48.685 16.202 48.1728C14.3697 47.1255 13.6092 43.1072 14.6463 37.7001C14.773 37.0627 14.9113 36.4252 15.0727 35.7991C17.6539 36.3455 20.2582 36.7212 22.8971 36.9147C24.4182 39.0434 26.0891 41.081 27.8752 42.9934C27.5064 43.3463 27.1377 43.6878 26.7689 44.0065ZM29.5922 41.2403C28.4168 39.9882 27.2414 38.5994 26.1006 37.1082C27.2068 37.1537 28.3477 37.1765 29.5 37.1765C30.6869 37.1765 31.8508 37.1537 33.0031 37.0968C31.943 38.5425 30.8021 39.9199 29.5922 41.2403ZM44.6533 44.6553C44.5496 46.0441 43.8582 47.3418 42.752 48.2183C40.9197 49.2656 37.0133 47.8996 32.7957 44.3252C32.3117 43.9154 31.8277 43.4715 31.3322 43.0161C33.0953 41.0924 34.7201 39.0547 36.1951 36.9147C38.834 36.6984 41.4613 36.3 44.0541 35.7194C44.1693 36.1861 44.273 36.6529 44.3652 37.1082C44.9299 39.567 45.0221 42.1282 44.6533 44.6553ZM46.7506 32.4183C46.4279 32.5207 46.1053 32.6232 45.7711 32.7142C44.9645 30.2327 43.9734 27.808 42.8326 25.4517C43.9389 23.1295 44.8723 20.739 45.6559 18.2916C46.2551 18.4623 46.8313 18.6445 47.3844 18.8266C52.7543 20.6479 56.5225 23.3571 56.5225 25.4289C56.5225 27.66 52.5008 30.54 46.7506 32.4183ZM29.5 30.7108C32.4154 30.7108 34.7777 28.3772 34.7777 25.4972C34.7777 22.6172 32.4154 20.2837 29.5 20.2837C26.5846 20.2837 24.2223 22.6172 24.2223 25.4972C24.2223 28.3772 26.5846 30.7108 29.5 30.7108Z" fill="url(#paint0_linear_148_11615)"/>
  <defs>
    <linearGradient id="paint0_linear_148_11615" x1="29.5" y1="0" x2="29.5" y2="51" gradientUnits="userSpaceOnUse">
      <stop stop-color="white"/>
      <stop offset="1" stop-color="white" stop-opacity="0.7"/>
    </linearGradient>
  </defs>
</svg>