<svg width="24" height="17" viewBox="0 0 24 17" fill="none" xmlns="http://www.w3.org/2000/svg">
<path d="M23.3968 3.581C22.9088 3.374 22.3438 3.579 22.1068 4.053C21.8828 4.501 21.5838 4.776 21.1928 4.891C20.5808 5.074 19.8498 4.839 19.5078 4.638C19.0568 4.373 18.5338 3.971 17.9808 3.546C16.2158 2.188 14.0198 0.5 11.0018 0.5C8.58776 0.5 7.34776 1.739 5.29476 3.793C4.90376 4.184 4.90076 4.82 5.29176 5.21C5.67176 5.592 6.28176 5.604 6.67376 5.24C6.68376 5.231 6.69376 5.221 6.70376 5.212C7.25576 4.786 10.7338 5.2 12.2538 6.408C14.5128 8.203 16.1438 9.5 18.0018 9.5C20.6608 9.5 22.8808 7.759 23.9418 4.842C24.1228 4.344 23.8838 3.791 23.3968 3.581ZM18.3968 10.581C17.9088 10.374 17.3438 10.579 17.1068 11.053C16.8828 11.501 16.5838 11.776 16.1928 11.891C15.5808 12.071 14.8498 11.839 14.5078 11.638C14.0568 11.373 13.5338 10.971 12.9808 10.546C11.2158 9.188 9.01976 7.5 6.00176 7.5C3.58776 7.5 2.34776 8.739 0.294754 10.793C-0.0962457 11.184 -0.0992457 11.82 0.291754 12.21C0.671755 12.592 1.28275 12.605 1.67475 12.24C1.68475 12.231 1.69475 12.221 1.70475 12.212C2.25576 11.786 5.73576 12.2 7.25476 13.408C9.51276 15.203 11.1438 16.5 13.0018 16.5C15.6608 16.5 17.8808 14.759 18.9418 11.842C19.1228 11.344 18.8838 10.791 18.3968 10.581Z" fill="url(#paint0_linear_263_10102)"/>
<defs>
<linearGradient id="paint0_linear_263_10102" x1="12.0011" y1="0.5" x2="12.0011" y2="16.5" gradientUnits="userSpaceOnUse">
<stop stop-color="white"/>
<stop offset="1" stop-color="white" stop-opacity="0.7"/>
</linearGradient>
</defs>
</svg>
