<svg width="42" height="43" viewBox="0 0 42 43" fill="none" xmlns="http://www.w3.org/2000/svg">
<path d="M41.002 0.5H1.00195C0.448953 0.5 0.00195312 0.948 0.00195312 1.5V41.5C0.00195312 42.052 0.448953 42.5 1.00195 42.5H41.002C41.555 42.5 42.002 42.052 42.002 41.5V1.5C42.002 0.948 41.555 0.5 41.002 0.5ZM25.002 22.945H20.002V38.5H16.002V22.945H11.002V19.5H25.002V22.945ZM26.123 37.612V33.454C26.123 33.454 28.394 35.166 31.119 35.166C33.844 35.166 33.739 33.384 33.739 33.14C33.739 30.554 26.018 30.554 26.018 24.825C26.018 17.034 37.268 20.108 37.268 20.108L37.128 23.812C37.128 23.812 35.241 22.554 33.11 22.554C30.979 22.554 30.21 23.567 30.21 24.65C30.21 27.445 38.001 27.166 38.001 32.791C38.002 41.455 26.123 37.612 26.123 37.612Z" fill="url(#paint0_linear_263_10106)"/>
<defs>
<linearGradient id="paint0_linear_263_10106" x1="21.002" y1="0.5" x2="21.002" y2="42.5" gradientUnits="userSpaceOnUse">
<stop stop-color="white"/>
<stop offset="1" stop-color="white" stop-opacity="0.7"/>
</linearGradient>
</defs>
</svg>
